<svg xmlns="http://www.w3.org/2000/svg" viewBox="0 0 229 256">
  <path fill="red" d="M 61.00,30.00
           C 61.00,20.13 60.51,12.34 69.04,5.39
             77.63,-1.61 94.33,0.00 105.00,0.00
             105.00,0.00 127.00,0.00 127.00,0.00
             140.60,0.00 157.14,-1.37 163.39,14.00
             165.42,19.00 165.00,24.70 165.00,30.00
             165.00,30.00 205.00,30.00 205.00,30.00
             209.80,30.06 215.86,30.62 219.67,33.80
             227.88,40.65 226.10,54.38 215.99,58.34
             210.64,60.43 202.76,60.00 197.00,60.00
             197.00,60.00 165.00,60.00 165.00,60.00
             165.00,60.00 23.00,60.00 23.00,60.00
             17.97,59.99 11.45,59.84 7.18,56.86
             -1.20,50.98 -0.81,37.75 8.09,32.57
             11.94,30.33 17.63,30.02 22.00,30.00
             22.00,30.00 61.00,30.00 61.00,30.00 Z
           M 151.00,30.00
           C 151.00,20.41 151.61,15.08 140.00,15.00
             140.00,15.00 85.00,15.00 85.00,15.00
             74.22,15.20 75.00,21.49 75.00,30.00
             75.00,30.00 151.00,30.00 151.00,30.00 Z
           M 17.00,75.00
           C 17.00,75.00 209.00,75.00 209.00,75.00
             209.00,75.00 206.17,114.00 206.17,114.00
             206.17,114.00 203.83,145.00 203.83,145.00
             203.83,145.00 201.09,175.00 201.09,175.00
             201.09,175.00 197.17,222.00 197.17,222.00
             196.60,228.00 196.94,234.12 195.21,240.00
             191.30,253.33 179.13,255.98 167.00,256.00
             167.00,256.00 59.00,256.00 59.00,256.00
             46.87,255.98 34.70,253.33 30.79,240.00
             29.06,234.12 29.40,228.00 28.83,222.00
             28.83,222.00 24.91,175.00 24.91,175.00
             24.91,175.00 22.17,145.00 22.17,145.00
             22.17,145.00 19.83,114.00 19.83,114.00
             19.83,114.00 17.00,75.00 17.00,75.00 Z
           M 65.04,90.60
           C 57.86,94.80 60.17,101.10 60.83,108.00
             60.83,108.00 61.90,123.00 61.90,123.00
             61.90,123.00 61.90,134.00 61.90,134.00
             61.90,134.00 64.00,157.00 64.00,157.00
             64.00,157.00 64.00,166.00 64.00,166.00
             64.00,166.00 66.00,189.00 66.00,189.00
             66.00,189.00 66.00,198.00 66.00,198.00
             66.00,198.00 67.00,211.00 67.00,211.00
             67.03,217.70 67.59,227.22 76.98,225.76
             84.72,224.56 83.06,214.78 83.00,209.00
             83.00,209.00 81.09,183.00 81.09,183.00
             81.09,183.00 78.91,142.00 78.91,142.00
             78.91,142.00 77.00,116.00 77.00,116.00
             77.00,116.00 76.17,104.00 76.17,104.00
             75.45,96.45 76.36,88.29 65.04,90.60 Z
           M 110.04,90.60
           C 107.74,91.94 106.81,92.33 105.74,95.02
             104.46,98.23 105.00,117.21 105.00,122.00
             105.00,122.00 105.00,213.00 105.00,213.00
             105.00,215.82 104.80,219.42 106.17,221.94
             108.86,226.85 115.99,227.32 119.26,222.85
             121.28,220.10 120.99,216.25 121.00,213.00
             121.00,213.00 121.00,118.00 121.00,118.00
             121.00,118.00 121.00,106.00 121.00,106.00
             121.00,97.84 121.80,88.20 110.04,90.60 Z
           M 155.04,90.60
           C 153.07,91.75 152.38,91.85 151.17,94.06
             149.28,97.51 149.30,115.06 148.83,120.00
             148.83,120.00 145.91,167.00 145.91,167.00
             145.91,167.00 144.00,190.00 144.00,190.00
             144.00,190.00 144.00,199.00 144.00,199.00
             144.00,199.00 143.00,210.00 143.00,210.00
             142.97,216.71 141.56,227.38 151.98,225.76
             159.93,224.52 158.93,213.96 159.00,208.00
             159.00,208.00 160.91,182.00 160.91,182.00
             160.91,182.00 163.09,141.00 163.09,141.00
             163.09,141.00 165.06,117.00 165.06,117.00
             165.06,117.00 165.06,108.00 165.06,108.00
             165.95,99.80 168.08,87.94 155.04,90.60 Z" />
</svg>
