<svg xmlns="http://www.w3.org/2000/svg" viewBox="0 0 260 256">
	<path fill="red" d="M 94.00,0.44
           C 98.60,0.07 105.48,1.03 110.00,2.13
             150.03,11.86 163.68,62.97 134.83,91.83
             122.49,104.17 109.76,107.19 93.00,107.00
             57.72,106.58 33.97,66.96 46.46,35.00
             52.92,18.49 66.72,6.04 84.00,1.90
             84.00,1.90 94.00,0.44 94.00,0.44 Z
           M 192.00,128.00
           C 192.00,128.00 226.00,128.00 226.00,128.00
             226.00,128.00 226.00,141.00 226.00,141.00
             226.00,141.00 192.00,141.00 192.00,141.00
             192.00,141.00 192.00,128.00 192.00,128.00 Z
           M 5.00,235.00
           C 5.01,189.61 40.02,148.02 86.00,144.00
             86.00,144.00 98.00,143.02 98.00,143.02
             112.15,143.29 138.50,149.44 148.61,159.52
             150.20,161.10 150.73,162.28 151.95,164.01
             157.55,172.01 158.98,168.74 159.00,179.00
             159.00,179.00 159.00,235.00 159.00,235.00
             159.00,235.00 5.00,235.00 5.00,235.00 Z
           M 164.04,150.74
           C 169.71,149.34 185.29,150.00 192.00,150.00
             192.00,150.00 246.00,150.00 246.00,150.00
             249.24,150.01 253.10,149.72 255.85,151.74
             260.45,155.10 259.30,161.14 253.98,163.26
             251.80,164.13 248.37,164.00 246.00,164.00
             246.00,164.00 171.00,164.00 171.00,164.00
             168.08,163.96 164.69,163.94 162.23,162.15
             157.12,158.42 159.48,153.40 164.04,150.74 Z
           M 169.00,173.00
           C 169.00,173.00 249.00,173.00 249.00,173.00
             249.00,173.00 249.00,243.00 249.00,243.00
             248.98,255.11 245.52,255.98 234.00,256.00
             234.00,256.00 193.00,256.00 193.00,256.00
             188.33,256.00 177.85,256.63 174.02,254.69
             168.76,252.01 169.01,248.10 169.00,243.00
             169.00,243.00 169.00,173.00 169.00,173.00 Z
           M 187.14,207.66
           C 185.75,208.58 185.42,208.27 184.60,210.15
             183.56,212.52 183.99,230.12 184.00,234.00
             184.01,237.46 183.89,245.15 189.78,243.16
             193.55,241.88 192.99,236.15 193.00,233.00
             193.00,233.00 193.00,216.00 193.00,216.00
             192.99,214.01 193.12,211.01 191.98,209.31
             190.56,207.20 189.27,207.50 187.14,207.66 Z
           M 208.09,207.71
           C 206.56,208.61 206.25,208.34 205.17,210.15
             203.30,213.31 203.99,227.59 204.00,232.00
             204.01,235.68 203.79,244.43 209.96,243.04
             214.44,242.02 213.99,236.49 214.00,233.00
             214.01,228.71 214.74,212.20 212.83,209.43
             211.39,207.36 210.22,207.62 208.09,207.71 Z
           M 229.09,207.58
           C 227.30,208.31 226.68,208.20 225.74,210.23
             224.49,212.89 224.99,228.98 225.00,233.00
             225.01,236.57 224.96,244.67 230.90,243.12
             235.45,241.93 234.99,235.60 235.00,232.00
             235.01,227.24 236.00,212.58 233.26,209.32
             231.77,207.53 231.08,207.79 229.09,207.58 Z" />
</svg>
