<svg xmlns="http://www.w3.org/2000/svg" viewBox="0 0 256 254">
	<path fill="white" d="M 162.00,127.00
           C 167.87,131.21 174.71,138.71 180.00,144.00
             180.00,144.00 210.00,174.00 210.00,174.00
             210.00,174.00 236.00,200.00 236.00,200.00
             239.84,203.84 248.43,212.03 251.20,216.00
             261.99,231.44 252.97,253.54 230.00,252.99
             217.03,252.67 209.46,242.46 201.00,234.00
             201.00,234.00 150.00,183.00 150.00,183.00
             150.00,183.00 136.00,169.00 136.00,169.00
             134.46,167.46 131.02,163.73 129.00,163.20
             125.92,162.39 122.94,166.09 121.00,168.00
             121.00,168.00 104.00,185.00 104.00,185.00
             104.00,185.00 60.00,229.00 60.00,229.00
             54.16,234.84 42.85,247.31 36.00,250.60
             19.82,258.38 -0.97,248.48 0.52,229.00
             1.46,216.62 11.83,209.17 20.00,201.00
             20.00,201.00 72.00,149.00 72.00,149.00
             72.00,149.00 86.00,135.00 86.00,135.00
             87.54,133.46 91.27,130.02 91.80,128.00
             92.61,124.92 88.91,121.94 87.00,120.00
             87.00,120.00 70.00,103.00 70.00,103.00
             70.00,103.00 20.00,53.00 20.00,53.00
             11.97,44.97 2.31,38.29 2.01,26.00
             1.65,10.89 11.68,0.37 27.00,1.04
             38.85,1.56 46.26,11.26 54.00,19.00
             54.00,19.00 104.00,69.00 104.00,69.00
             104.00,69.00 121.00,86.00 121.00,86.00
             122.63,87.60 125.58,90.96 128.00,90.96
             130.42,90.96 133.37,87.60 135.00,86.00
             135.00,86.00 152.00,69.00 152.00,69.00
             152.00,69.00 197.00,24.00 197.00,24.00
             202.50,18.50 213.50,6.24 220.00,3.36
             240.71,-5.82 261.80,17.03 249.64,38.00
             246.37,43.63 226.88,62.12 221.00,68.00
             221.00,68.00 162.00,127.00 162.00,127.00 Z" />
</svg>
